<?xml version="1.0" encoding="iso-8859-1"?>
<!-- Generator: Adobe Illustrator 19.0.0, SVG Export Plug-In . SVG Version: 6.00 Build 0)  -->
<svg version="1.1" id="Capa_1" xmlns="http://www.w3.org/2000/svg" xmlns:xlink="http://www.w3.org/1999/xlink" x="0px" y="0px"
	 viewBox="0 0 496.941 496.941" style="enable-background:new 0 0 496.941 496.941;" xml:space="preserve">
<g>
	<g>
		<g>
			<path d="M272.565,2.259C271.059,0.753,268.8,0,266.541,0H7.529C3.012,0,0,3.012,0,7.529v481.882c0,4.518,3.012,7.529,7.529,7.529
				h393.035c4.518,0,7.529-3.012,7.529-7.529c0-36.894,0-313.976,0-353.129c0-2.259-0.753-4.518-2.259-6.024L272.565,2.259z
				 M274.071,24.847L381.741,128H274.071V24.847z M393.035,481.882H15.059V15.059h243.953v121.224c0,4.518,3.012,7.529,7.529,7.529
				h126.494C393.035,213.835,393.035,411.859,393.035,481.882z"/>
			<path d="M116.706,94.118c0-24.094-19.576-43.671-42.918-43.671c-23.341,0-43.671,20.329-43.671,43.671
				c0,23.341,19.576,43.671,42.918,43.671S116.706,118.212,116.706,94.118z M45.176,94.118c0-15.812,12.8-28.612,27.859-28.612
				s27.859,12.8,27.859,28.612s-12.8,28.612-27.859,28.612S45.176,109.929,45.176,94.118z"/>
			<rect x="135.529" y="65.506" width="92.612" height="15.059"/>
			<rect x="135.529" y="107.671" width="92.612" height="15.059"/>
			<path d="M51.953,420.141h304.188V180.706H51.953V420.141z M341.835,405.082H146.071v-27.106h195.765V405.082z M341.835,362.918
				H146.071v-31.624h195.765V362.918z M341.835,316.235H146.071v-31.624h195.765V316.235z M341.835,270.306H146.071v-31.624h195.765
				V270.306z M145.318,195.765h195.765v27.859H145.318V195.765z M67.012,195.765h64v27.859h-64V195.765z M67.012,238.682h64v166.4
				h-64V238.682z"/>
			<rect x="224.376" y="447.247" width="134.776" height="15.059"/>
			<path d="M466.071,187.482h-20.329c-17.318,0-30.871,13.553-30.871,30.871v182.965c0,0,0.753,2.259,0.753,3.012l33.129,88.094
				c0.753,3.012,3.765,4.518,6.776,4.518s6.024-2.259,6.776-4.518l33.129-88.094c0,0,0.753-2.259,0.753-3.012V218.353h0.753
				C496.941,201.035,483.388,187.482,466.071,187.482z M456.282,468.329l-22.588-59.482h45.176L456.282,468.329z M481.882,393.788
				h-51.953V218.353c0-9.035,6.776-15.812,15.812-15.812h20.329c9.035,0,15.812,6.776,15.812,15.812V393.788z"/>
		</g>
	</g>
</g>
<g>
</g>
<g>
</g>
<g>
</g>
<g>
</g>
<g>
</g>
<g>
</g>
<g>
</g>
<g>
</g>
<g>
</g>
<g>
</g>
<g>
</g>
<g>
</g>
<g>
</g>
<g>
</g>
<g>
</g>
</svg>
